<?xml version="1.0" encoding="UTF-8" standalone="no"?>
<!DOCTYPE svg PUBLIC "-//W3C//DTD SVG 1.1//EN" "http://www.w3.org/Graphics/SVG/1.1/DTD/svg11.dtd">
<svg width="100%" height="100%" viewBox="0 0 300 300" version="1.1"
    xmlns="http://www.w3.org/2000/svg" xmlns:xlink="http://www.w3.org/1999/xlink"
    xml:space="preserve" xmlns:serif="http://www.serif.com/"
    style="fill-rule:evenodd;clip-rule:evenodd;stroke-linejoin:round;stroke-miterlimit:2;">
    <g transform="matrix(0.83157,0,0,0.83157,150,150)">
        <g id="Mesa-de-trabajo1" serif:id="Mesa de trabajo1">
            <g id="flag-unknown.svg" transform="matrix(1,0,0,1,-150,-150)">
                <g id="Mesa-de-trabajo11" serif:id="Mesa de trabajo1">
                    <g transform="matrix(1,0,0,1,-10.0238,0)">
                        <g transform="matrix(2.57143,0,0,1.13612,-229.07,-3.93552)">
                            <rect x="115.275" y="22.648" width="5.734" height="225.69" style="fill:white;"/>
                        </g>
                        <g transform="matrix(6.12323e-17,1,-1,6.12323e-17,283.945,-86.9262)">
                            <path d="M187.262,31.25L265.803,188.331L108.721,188.331L187.262,31.25Z" style="fill:#3434ff;"/>
                        </g>
                    </g>
                    <g transform="matrix(7.32498,0,0,7.32498,100.84,131.717)">
                        <path d="M1.728,-3.528C1.728,-3.888 1.802,-4.202 1.95,-4.47C2.098,-4.738 2.38,-5.004 2.796,-5.268C3.06,-5.436 3.256,-5.582 3.384,-5.706C3.512,-5.83 3.594,-5.944 3.63,-6.048C3.666,-6.152 3.684,-6.256 3.684,-6.36C3.684,-6.52 3.61,-6.648 3.462,-6.744C3.314,-6.84 3.12,-6.888 2.88,-6.888C2.296,-6.888 1.608,-6.68 0.816,-6.264L0,-7.86C0.44,-8.116 0.912,-8.318 1.416,-8.466C1.92,-8.614 2.464,-8.688 3.048,-8.688C3.936,-8.688 4.624,-8.492 5.112,-8.1C5.6,-7.708 5.844,-7.192 5.844,-6.552C5.844,-6.088 5.736,-5.684 5.52,-5.34C5.304,-4.996 4.948,-4.664 4.452,-4.344C4.1,-4.12 3.858,-3.94 3.726,-3.804C3.594,-3.668 3.528,-3.508 3.528,-3.324L3.528,-3.024L1.728,-3.024L1.728,-3.528ZM1.476,-0.972C1.476,-1.388 1.596,-1.68 1.836,-1.848C2.076,-2.016 2.368,-2.1 2.712,-2.1C3.04,-2.1 3.324,-2.016 3.564,-1.848C3.804,-1.68 3.924,-1.388 3.924,-0.972C3.924,-0.58 3.804,-0.296 3.564,-0.12C3.324,0.056 3.04,0.144 2.712,0.144C2.368,0.144 2.076,0.056 1.836,-0.12C1.596,-0.296 1.476,-0.58 1.476,-0.972Z" style="fill:white;"/>
                    </g>
                </g>
            </g>
            <g id="flag-unknown.svg1" serif:id="flag-unknown.svg">
            </g>
        </g>
    </g>
</svg>