<?xml version="1.0" encoding="UTF-8" standalone="no"?>
<!DOCTYPE svg PUBLIC "-//W3C//DTD SVG 1.1//EN" "http://www.w3.org/Graphics/SVG/1.1/DTD/svg11.dtd">
<svg width="100%" height="100%" viewBox="0 0 300 300" version="1.1" xmlns="http://www.w3.org/2000/svg" xmlns:xlink="http://www.w3.org/1999/xlink" xml:space="preserve" xmlns:serif="http://www.serif.com/" style="fill-rule:evenodd;clip-rule:evenodd;stroke-linejoin:round;stroke-miterlimit:2;">
    <g transform="matrix(0.846066,0,0,0.846066,23.09,23.0902)">
        <g id="Mesa-de-trabajo1" serif:id="Mesa de trabajo1">
            <g transform="matrix(1,0,0,1,-10.0238,0)">
                <g transform="matrix(2.57143,0,0,1.13612,-229.07,-3.93552)">
                    <rect x="115.275" y="22.648" width="5.734" height="225.69" style="fill:white;"/>
                </g>
                <g transform="matrix(6.12323e-17,1,-1,6.12323e-17,283.945,-86.9262)">
                    <path d="M187.262,31.25L265.803,188.331L108.721,188.331L187.262,31.25Z" style="fill:rgb(83,53,102);"/>
                </g>
            </g>
            <g transform="matrix(7.32498,0,0,7.32498,100.84,131.717)">
                <path d="M8.64,0L5.964,0L4.296,-2.676L2.64,0L0.024,0L2.868,-4.38L0.192,-8.568L2.76,-8.568L4.308,-5.916L5.796,-8.568L8.436,-8.568L5.724,-4.2L8.64,0Z" style="fill:rgb(255,0,0);"/>
            </g>
        </g>
    </g>
</svg>
