<?xml version="1.0" encoding="UTF-8" standalone="no"?>
<!DOCTYPE svg PUBLIC "-//W3C//DTD SVG 1.1//EN" "http://www.w3.org/Graphics/SVG/1.1/DTD/svg11.dtd">
<svg width="100%" height="100%" viewBox="0 0 300 300" version="1.1"
    xmlns="http://www.w3.org/2000/svg" xmlns:xlink="http://www.w3.org/1999/xlink"
    xml:space="preserve" xmlns:serif="http://www.serif.com/"
    style="fill-rule:evenodd;clip-rule:evenodd;stroke-linejoin:round;stroke-miterlimit:2;">

    <g id="Mesa-de-trabajo11" serif:id="Mesa de trabajo1">
        <g transform="matrix(0.786775,0,0,0.77244,35.3276,40.5066)">
            <path d="M174.419,15.6L201.666,25.135L226.136,40.51L246.6,60.974L262.019,85.513L271.602,112.899L274.852,141.75L271.602,170.601L262.019,197.987L246.6,222.526L226.136,242.99L201.666,258.365L174.419,267.9L145.75,271.13L117.081,267.9L89.834,258.365L65.364,242.99L44.9,222.526L29.481,197.987L19.898,170.601L16.648,141.75L19.898,112.899L29.481,85.513L44.9,60.974L65.364,40.51L89.834,25.135L117.081,15.6L145.75,12.37L174.419,15.6ZM145.75,28L120.438,30.852L96.396,39.265L74.828,52.817L56.817,70.828L43.265,92.396L34.852,116.438L32,141.75L34.852,167.062L43.265,191.104L56.817,212.672L74.828,230.683L96.396,244.235L120.438,252.648L145.75,255.5L171.062,252.648L195.104,244.235L216.672,230.683L234.683,212.672L248.235,191.104L256.648,167.062L259.5,141.75L256.648,116.438L248.235,92.396L234.683,70.828L216.672,52.817L195.104,39.265L171.062,30.852L145.75,28Z" style="fill:white;"/>
        </g>
        <g transform="matrix(0.382244,0,0,0.37528,94.2879,96.804)">
            <path d="M39.066,186.217L30.716,148.263L2.179,141.75L30.716,135.237L39.066,97.283L16.839,79.558L45.141,86.018L68.998,54.981L57.231,30.547L79.037,47.937L114.356,30.291L114.356,3.951L125.938,28L165.562,28L177.144,3.951L177.144,30.291L212.463,47.937L234.269,30.547L222.502,54.981L246.359,86.018L274.661,79.558L252.434,97.283L260.784,135.237L289.321,141.75L260.784,148.263L252.434,186.217L274.661,203.942L246.359,197.482L222.502,228.519L234.269,252.953L212.463,235.563L177.144,253.209L177.144,279.549L165.562,255.5L125.938,255.5L114.356,279.549L114.356,253.209L79.037,235.563L57.231,252.953L68.998,228.519L45.141,197.482L16.839,203.942L39.066,186.217Z" style="fill:rgb(131,255,117);"/>
        </g>
    </g>
</svg>