<?xml version="1.0" encoding="UTF-8" standalone="no"?>
<!DOCTYPE svg PUBLIC "-//W3C//DTD SVG 1.1//EN" "http://www.w3.org/Graphics/SVG/1.1/DTD/svg11.dtd">
<svg width="100%" height="100%" viewBox="0 0 300 300" version="1.1"
    xmlns="http://www.w3.org/2000/svg" xmlns:xlink="http://www.w3.org/1999/xlink"
    xml:space="preserve" xmlns:serif="http://www.serif.com/"
    style="fill-rule:evenodd;clip-rule:evenodd;stroke-linejoin:round;stroke-miterlimit:2;">

    <g id="Mesa-de-trabajo11" serif:id="Mesa de trabajo1">
        <g transform="matrix(0.786775,0,0,0.77244,35.3276,40.5066)">
            <path d="M158.245,19.091C158.245,19.091 169.812,35.921 169.812,35.921L206.759,14.774L213.251,56.781L255.85,53.748L243.439,94.525L283.209,110.305L254.25,141.75L283.209,173.195L243.439,188.975L255.85,229.752L213.251,226.719L206.759,268.726L169.812,247.579L145.75,282.589C145.75,282.589 121.688,247.579 121.688,247.579L84.741,268.726L78.249,226.719L35.65,229.752L48.061,188.975L8.291,173.195L37.25,141.75L8.291,110.305L48.061,94.525L35.65,53.748L78.249,56.781L84.741,14.774L121.688,35.921L145.75,0.911L158.245,19.091ZM145.75,28L126.26,56.359L96.396,39.265L91.14,73.271L56.817,70.828L66.836,103.747L34.852,116.438L58.163,141.75L34.852,167.062L66.836,179.753L56.817,212.672L91.14,210.229L96.396,244.235L126.26,227.141L145.75,255.5L165.24,227.141L195.104,244.235L200.36,210.229L234.683,212.672L224.664,179.753L256.648,167.062L233.337,141.75L256.648,116.438L224.664,103.747L234.683,70.828L200.36,73.271L195.104,39.265L165.24,56.359L145.75,28Z" style="fill:white;"/>
        </g>
        <g transform="matrix(0.382244,0,0,0.37528,94.2879,96.804)">
            <path d="M171.468,9.662L174.651,14.293L219.094,-11.145L226.894,39.328L278.251,35.673L263.309,84.765L311.318,103.814L276.381,141.75L311.318,179.686C311.318,179.686 263.309,198.735 263.309,198.736L278.251,247.827C278.251,247.827 226.894,244.172 226.894,244.172L219.094,294.645L174.651,269.207L145.75,311.258L116.849,269.207L72.406,294.645L64.606,244.172L13.249,247.827L28.191,198.735L-19.818,179.686L15.119,141.75L-19.818,103.814C-19.818,103.814 28.191,84.765 28.191,84.764L13.249,35.673C13.249,35.673 64.606,39.328 64.606,39.328L72.406,-11.145L116.849,14.293L145.75,-27.758L171.468,9.662ZM145.75,28L126.26,56.359L96.396,39.265L91.14,73.271L56.817,70.828L66.836,103.747L34.852,116.438L58.163,141.75L34.852,167.062L66.836,179.753L56.817,212.672L91.14,210.229L96.396,244.235L126.26,227.141L145.75,255.5L165.24,227.141L195.104,244.235L200.36,210.229L234.683,212.672L224.664,179.753L256.648,167.062L233.337,141.75L256.648,116.438L224.664,103.747L234.683,70.828L200.36,73.271L195.104,39.265L165.24,56.359L145.75,28Z" style="fill:rgb(255,117,140);"/>
        </g>
    </g>
</svg>